<svg id="svg" xmlns="http://www.w3.org/2000/svg" xmlns:xlink="http://www.w3.org/1999/xlink" width="400" height="459.04761904761904" viewBox="0, 0, 400,459.04761904761904" version="1.1"><g id="svgg"><path id="path0" d="M107.508 114.597 C 93.042 116.388,83.187 125.860,82.060 139.057 C 81.665 143.685,81.914 321.684,82.319 323.673 C 84.031 332.091,90.585 339.513,98.709 342.230 C 113.368 347.134,128.360 339.320,132.661 324.534 C 133.776 320.700,133.714 324.877,133.715 254.173 C 133.716 209.199,133.777 189.207,133.915 189.292 C 134.024 189.360,134.335 189.766,134.606 190.194 C 134.876 190.623,141.820 199.030,150.037 208.877 C 199.265 267.874,208.794 279.286,220.178 292.874 C 236.722 312.623,243.296 320.516,246.294 324.230 C 254.233 334.066,261.356 339.113,271.258 341.918 C 293.139 348.118,312.567 338.728,314.470 321.035 C 314.900 317.044,314.748 137.017,314.314 135.055 C 311.184 120.917,298.025 112.367,283.501 115.034 C 273.123 116.940,265.833 124.062,263.357 134.715 L 262.944 136.490 262.890 202.924 L 262.836 269.359 260.297 266.243 C 258.900 264.530,256.942 262.138,255.945 260.928 C 254.948 259.718,253.316 257.738,252.319 256.528 C 248.385 251.756,230.667 230.550,221.152 219.225 C 215.626 212.649,206.417 201.631,200.686 194.739 C 189.828 181.681,184.125 174.843,178.034 167.575 C 171.868 160.219,158.709 144.438,153.230 137.829 C 145.097 128.020,142.537 125.470,137.252 121.912 C 129.546 116.724,116.413 113.494,107.508 114.597 " stroke="none" fill="#fbfbfb" fill-rule="evenodd"></path><path id="path1" d="M197.529 0.292 C 196.017 0.707,192.228 2.768,183.357 7.997 C 182.200 8.679,171.741 14.749,160.115 21.486 C 148.489 28.223,138.310 34.129,137.496 34.610 C 132.825 37.370,113.495 48.531,113.042 48.729 C 112.494 48.968,103.204 54.296,95.935 58.539 C 93.725 59.829,85.505 64.585,77.666 69.108 C 55.036 82.167,49.953 85.110,48.015 86.275 C 45.245 87.940,33.615 94.614,33.260 94.741 C 32.959 94.849,11.532 107.153,6.408 110.159 C 2.669 112.353,1.054 114.181,0.278 117.098 C -0.063 118.379,-0.137 340.923,0.203 342.399 C 1.019 345.937,2.187 346.996,10.621 351.844 C 15.787 354.814,26.109 360.780,35.007 365.939 C 36.217 366.640,37.368 367.275,37.565 367.350 C 37.969 367.503,45.054 371.557,47.824 373.221 C 48.824 373.821,54.376 377.026,60.163 380.344 C 71.161 386.649,90.366 397.720,93.161 399.365 C 100.817 403.872,117.003 413.199,117.170 413.199 C 117.303 413.199,134.408 423.058,136.107 424.114 C 137.937 425.251,172.785 445.389,189.272 454.837 C 196.744 459.119,196.878 459.168,200.627 459.076 C 203.397 459.008,203.467 458.995,204.893 458.321 C 207.397 457.137,215.760 452.418,224.677 447.157 C 227.834 445.295,237.001 439.960,245.050 435.300 C 253.099 430.641,261.191 425.944,263.032 424.863 C 270.531 420.461,282.856 413.339,283.214 413.201 C 283.614 413.046,298.919 404.239,306.648 399.716 C 309.120 398.269,319.622 392.177,329.986 386.178 C 340.349 380.179,350.292 374.409,352.080 373.355 C 359.861 368.770,361.871 367.607,362.410 367.377 C 363.025 367.115,366.006 365.406,384.113 354.939 C 397.824 347.013,398.426 346.553,399.617 343.092 C 400.208 341.372,400.224 117.977,399.633 116.257 C 399.111 114.740,398.124 113.288,396.819 112.116 C 395.776 111.179,371.776 97.106,366.906 94.574 C 366.011 94.110,363.105 92.461,360.448 90.911 C 348.136 83.729,343.901 81.271,327.977 72.067 C 318.613 66.654,308.326 60.697,305.117 58.829 C 297.089 54.155,287.864 48.866,287.518 48.739 C 287.217 48.629,269.121 38.183,263.510 34.880 C 261.722 33.827,252.080 28.247,242.085 22.480 C 232.090 16.712,222.190 10.986,220.086 9.755 C 214.153 6.284,208.196 2.869,208.072 2.869 C 208.011 2.869,207.135 2.386,206.125 1.795 C 203.123 0.038,200.273 -0.461,197.529 0.292 M117.934 114.861 C 132.904 117.222,139.939 121.800,153.230 137.829 C 158.709 144.438,171.868 160.219,178.034 167.575 C 184.125 174.843,189.828 181.681,200.686 194.739 C 206.417 201.631,215.626 212.649,221.152 219.225 C 230.667 230.550,248.385 251.756,252.319 256.528 C 253.316 257.738,254.948 259.718,255.945 260.928 C 256.942 262.138,258.900 264.530,260.297 266.243 L 262.836 269.359 262.890 202.924 L 262.944 136.490 263.357 134.715 C 265.833 124.062,273.123 116.940,283.501 115.034 C 298.025 112.367,311.184 120.917,314.314 135.055 C 314.748 137.017,314.900 317.044,314.470 321.035 C 312.567 338.728,293.139 348.118,271.258 341.918 C 261.356 339.113,254.233 334.066,246.294 324.230 C 243.296 320.516,236.722 312.623,220.178 292.874 C 208.794 279.286,199.265 267.874,150.037 208.877 C 141.820 199.030,134.876 190.623,134.606 190.194 C 134.335 189.766,134.024 189.360,133.915 189.292 C 133.777 189.207,133.716 209.199,133.715 254.173 C 133.714 324.877,133.776 320.700,132.661 324.534 C 128.360 339.320,113.368 347.134,98.709 342.230 C 90.585 339.513,84.031 332.091,82.319 323.673 C 81.914 321.684,81.665 143.685,82.060 139.057 C 83.477 122.463,99.141 111.898,117.934 114.861 " stroke="none" fill="#049c04" fill-rule="evenodd"></path></g></svg>